<svg width="230" height="230" viewBox="0 0 230 230" fill="none" xmlns="http://www.w3.org/2000/svg">
<g filter="url(#filter0_d_206_2)">
<path fill-rule="evenodd" clip-rule="evenodd" d="M146.454 29.9883C150.334 28.9 153.176 25.3626 153.176 21.1667C153.176 16.1041 149.038 12 143.933 12C138.828 12 134.689 16.1041 134.689 21.1667C134.689 26.07 138.571 30.0741 143.454 30.3212V45.3411C138.803 45.493 134.716 47.849 132.218 51.3896L102.514 33.2621C102.672 32.5891 102.756 31.8876 102.756 31.1667C102.756 26.1041 98.6176 22 93.5125 22C88.4073 22 84.2688 26.1041 84.2688 31.1667C84.2688 36.2293 88.4073 40.3333 93.5125 40.3333C96.805 40.3333 99.6954 38.6263 101.333 36.056L130.758 54.0129C130.042 55.7005 129.647 57.5544 129.647 59.5C129.647 62.0865 130.346 64.5111 131.567 66.5982L81.7634 114.72C79.4025 113.01 76.4924 112 73.3446 112C69.7419 112 66.4507 113.322 63.9377 115.505L40.2023 90.9863C42.4888 89.0006 43.9327 86.0842 43.9327 82.8333C43.9327 76.8503 39.0417 72 33.0084 72C26.975 72 22.084 76.8503 22.084 82.8333C22.084 88.8164 26.975 93.6667 33.0084 93.6667C34.6628 93.6667 36.2314 93.3019 37.6367 92.6492L61.8888 117.701C60.1112 120.063 59.0588 122.993 59.0588 126.167C59.0588 127.264 59.1847 128.332 59.4228 129.358L26.8582 142.515C25.9806 139.336 23.0469 137 19.563 137C15.3861 137 12 140.358 12 144.5C12 148.642 15.3861 152 19.563 152C23.3353 152 26.4625 149.261 27.0331 145.68L60.4125 132.194C62.6961 137.004 67.6282 140.333 73.3446 140.333C73.5752 140.333 73.8045 140.328 74.0325 140.317L73.301 157C68.2159 157.023 64.1008 161.118 64.1008 166.167C64.1008 171.229 68.2394 175.333 73.3445 175.333C78.4497 175.333 82.5882 171.229 82.5882 166.167C82.5882 162.123 79.9477 158.691 76.2832 157.473L77.0558 139.851C82.5216 138.396 86.6935 133.808 87.4919 128.147L131.909 137.67C131.532 138.767 131.328 139.943 131.328 141.167C131.328 147.15 136.219 152 142.252 152C142.907 152 143.548 151.943 144.172 151.833L151.5 169.092C149.445 170.773 148.135 173.318 148.135 176.167C148.135 178.471 148.992 180.577 150.408 182.187L136.559 195.921C134.935 194.517 132.811 193.667 130.487 193.667C125.382 193.667 121.244 197.771 121.244 202.833C121.244 207.896 125.382 212 130.487 212C135.592 212 139.731 207.896 139.731 202.833C139.731 201.157 139.278 199.587 138.486 198.235L152.741 184.098C154.104 184.884 155.688 185.333 157.378 185.333C160.256 185.333 162.826 184.03 164.521 181.985L190.83 199.379C190.393 200.445 190.151 201.611 190.151 202.833C190.151 207.896 194.29 212 199.395 212C204.5 212 208.639 207.896 208.639 202.833C208.639 197.771 204.5 193.667 199.395 193.667C196.606 193.667 194.106 194.891 192.411 196.828L166.034 179.389C166.414 178.387 166.622 177.301 166.622 176.167C166.622 171.104 162.483 167 157.378 167C156.231 167 155.133 167.207 154.119 167.586L147.038 150.908C150.673 149.148 153.176 145.448 153.176 141.167C153.176 135.184 148.285 130.333 142.252 130.333C138.57 130.333 135.313 132.14 133.334 134.908L87.5903 125.1C87.3497 121.895 86.0342 118.988 84.0001 116.73L133.365 69.0325C135.978 71.8796 139.745 73.6667 143.933 73.6667C147.068 73.6667 149.968 72.6647 152.324 70.9661L177.832 95.1114C177.114 96.4148 176.706 97.9101 176.706 99.5C176.706 104.563 180.844 108.667 185.95 108.667C191.055 108.667 195.193 104.563 195.193 99.5C195.193 94.4374 191.055 90.3333 185.95 90.3333C183.539 90.3333 181.344 91.2483 179.698 92.7472L154.568 68.9589C156.838 66.4508 158.218 63.1353 158.218 59.5C158.218 59.1358 158.205 58.7749 158.177 58.4176L195.777 51.7251C197.007 54.8143 200.045 57 203.597 57C208.238 57 212 53.269 212 48.6667C212 44.0643 208.238 40.3333 203.597 40.3333C198.956 40.3333 195.193 44.0643 195.193 48.6667C195.193 48.7051 195.194 48.7435 195.194 48.7818L157.631 55.4676C156.113 50.3862 151.797 46.4968 146.454 45.5532V29.9883Z" fill="url(#paint0_linear_206_2)"/>
</g>
<defs>
<filter id="filter0_d_206_2" x="0" y="0" width="230" height="230" filterUnits="userSpaceOnUse" color-interpolation-filters="sRGB">
<feFlood flood-opacity="0" result="BackgroundImageFix"/>
<feColorMatrix in="SourceAlpha" type="matrix" values="0 0 0 0 0 0 0 0 0 0 0 0 0 0 0 0 0 0 127 0" result="hardAlpha"/>
<feOffset dx="3" dy="3"/>
<feGaussianBlur stdDeviation="7.5"/>
<feComposite in2="hardAlpha" operator="out"/>
<feColorMatrix type="matrix" values="0 0 0 0 0 0 0 0 0 0 0 0 0 0 0 0 0 0 1 0"/>
<feBlend mode="normal" in2="BackgroundImageFix" result="effect1_dropShadow_206_2"/>
<feBlend mode="normal" in="SourceGraphic" in2="effect1_dropShadow_206_2" result="shape"/>
</filter>
<linearGradient id="paint0_linear_206_2" x1="12" y1="-5.5" x2="212" y2="212" gradientUnits="userSpaceOnUse">
<stop stop-color="#72C1EE"/>
<stop offset="0.838542" stop-color="#3A6A66"/>
</linearGradient>
</defs>
</svg>
